<?xml version="1.0" encoding="UTF-8"?>
<svg width="42px" height="42px" viewBox="0 0 42 42" version="1.1" xmlns="http://www.w3.org/2000/svg" xmlns:xlink="http://www.w3.org/1999/xlink">
    <!-- Generator: Sketch 47.1 (45422) - http://www.bohemiancoding.com/sketch -->
    <title>Assets</title>
    <desc>Created with Sketch.</desc>
    <defs>
        <linearGradient x1="50%" y1="0%" x2="50%" y2="99.5655293%" id="linearGradient-1">
            <stop stop-color="#57B031" offset="0%"></stop>
            <stop stop-color="#BACF11" offset="100%"></stop>
        </linearGradient>
    </defs>
    <g id="Page-1" stroke="none" stroke-width="1" fill="none" fill-rule="evenodd">
        <g id="Duplo-layout" transform="translate(-74.000000, -278.000000)" stroke="url(#linearGradient-1)" stroke-width="2">
            <g id="menu" transform="translate(55.000000, 41.000000)">
                <g id="Assets" transform="translate(20.000000, 238.000000)">
                    <circle id="Oval-Copy" cx="20" cy="20" r="20"></circle>
                    <g id="black_decentralization-47" transform="translate(8.000000, 10.000000)" stroke-linecap="round" stroke-linejoin="round">
                        <path d="M21.6666667,8.78 L23.5533333,10.6666667" id="Shape"></path>
                        <path d="M21.6666667,12.5533333 L23.5533333,10.6666667" id="Shape"></path>
                        <polyline id="Shape" points="10 7.22666667 9 5.5 6 0.333333333"></polyline>
                        <path d="M14,7.22 L18,0.333333333" id="Shape"></path>
                        <path d="M1.22,10.6666667 L5.22,10.6666667" id="Shape"></path>
                        <path d="M22.8866667,10.6666667 L16,10.6666667" id="Shape"></path>
                        <path d="M15.4266667,0.906666667 L18.0333333,0.333333333" id="Shape"></path>
                        <path d="M18.6066667,2.94 L18.0333333,0.333333333" id="Shape"></path>
                        <path d="M8.60666667,0.906666667 L6.00666667,0.333333333" id="Shape"></path>
                        <path d="M5.43333333,2.94 L6.00666667,0.333333333" id="Shape"></path>
                        <polyline id="Shape" points="14.04 14.1133333 14.1666667 14.3333333 14.1666667 14.3333333 14.1666667 14.3333333 18.04 21"></polyline>
                        <path d="M10,14.1733333 L6.04,21" id="Shape"></path>
                        <path d="M8.60666667,20.4266667 L6.00666667,21" id="Shape"></path>
                        <path d="M5.43333333,18.3933333 L6.00666667,21" id="Shape"></path>
                        <path d="M15.4533333,20.4266667 L18.06,21" id="Shape"></path>
                        <path d="M18.6333333,18.3933333 L18.06,21" id="Shape"></path>
                        <path d="M1.88666667,12.5533333 L0,10.6666667" id="Shape"></path>
                        <path d="M1.88666667,8.78 L0,10.6666667" id="Shape"></path>
                        <path d="M14,14.1333333 C12.4323342,15.0384251 10.4522251,14.7778998 9.17202659,13.4981112 C7.89182808,12.2183226 7.63066874,10.238297 8.53525848,8.67034143 C9.43984821,7.10238589 11.2846904,6.33736119 13.0334192,6.80503063 C14.782148,7.27270006 15.9988394,8.85648275 16,10.6666667" id="Shape"></path>
                    </g>
                </g>
            </g>
        </g>
    </g>
</svg>