<?xml version="1.0" encoding="UTF-8"?>
<svg width="62px" height="71px" viewBox="0 0 62 71" version="1.1" xmlns="http://www.w3.org/2000/svg" xmlns:xlink="http://www.w3.org/1999/xlink">
    <!-- Generator: Sketch 47.1 (45422) - http://www.bohemiancoding.com/sketch -->
    <title>Logo</title>
    <desc>Created with Sketch.</desc>
    <defs></defs>
    <g id="Page-1" stroke="none" stroke-width="1" fill="none" fill-rule="evenodd">
        <g id="Duplo-layout" transform="translate(-64.000000, -58.000000)">
            <g id="menu" transform="translate(55.000000, 41.000000)">
                <g id="Logo" transform="translate(9.000000, 17.000000)">
                    <polygon id="Fill-1" fill="#B9CE11" points="32 35.6666667 32 71 1 53.3333333 1 18"></polygon>
                    <path d="M0,53.3331587 L31,71 L31,35.666492 L0,18 L0,53.3331587 Z M0.353861081,53.1314386 L0.353861081,18.6049857 L30.6461389,35.8682121 L30.6461389,70.3948396 L0.353861081,53.1314386 Z" id="Fill-2" fill="#FEFEFE"></path>
                    <polygon id="Fill-3" fill="#57AF31" points="62 18 62 53.3333333 31 71 31 35.6666667"></polygon>
                    <path d="M31.0882888,35.616193 L31,35.6666667 L31,71 L61.9115342,53.3836324 L62,53.3331587 L62,18 L31.0882888,35.616193 Z M31.3536862,35.8683868 L61.6461369,18.6049857 L61.6461369,53.1316132 L31.3536862,70.3948396 L31.3536862,35.8683868 Z" id="Fill-4" fill="#FEFEFE"></path>
                    <polygon id="Fill-5" fill="#8ABD24" points="62 18 31.5 36 1 18 31.5 0"></polygon>
                    <path d="M31.0000885,0 L0,18.000089 L31.0000885,36 L62,18.000089 L31.0000885,0 Z M0.707547251,18.000089 L31.0000885,0.410876432 L61.2924527,18.000089 L31.0000885,35.5891236 L0.707547251,18.000089 Z" id="Fill-6" fill="#FEFEFE"></path>
                    <polygon id="Fill-7" fill="#B9CE11" points="31 36 31 18 46 27 46 45"></polygon>
                    <path d="M31.3611534,35.79691 L46.6388466,44.3905541 L46.6388466,27.20309 L31.3611534,18.6094459 L31.3611534,35.79691 Z M47,45 L31,35.9999414 L31,18 L47,27.0000586 L47,45 Z" id="Fill-8" fill="#FEFEFE"></path>
                    <polygon id="Fill-9" fill="#57AF31" points="16 45 16 27 31 18 31 36"></polygon>
                    <path d="M16.3611534,27.20309 L16.3611534,44.3905541 L31.6388466,35.79691 L31.6388466,18.6094459 L16.3611534,27.20309 Z M16,45 L16,27.0000586 L16.0902884,26.9492128 L32,18 L32,35.9999414 L31.9097116,36.0507872 L16,45 Z" id="Fill-10" fill="#FEFEFE"></path>
                    <polygon id="Fill-11" fill="#8ABD24" points="16 45 31.5 36 47 45 31.5 54"></polygon>
                    <path d="M15.6997348,45 L30.5,53.5935881 L45.3002652,45 L30.5,36.4064119 L15.6997348,45 Z M30.5,54 L15,45 L30.5,36 L46,45 L30.5,54 Z" id="Fill-12" fill="#FEFEFE"></path>
                </g>
            </g>
        </g>
    </g>
</svg>